<?xml version="1.0" encoding="utf-8"?>
<!-- Generator: Adobe Illustrator 17.0.0, SVG Export Plug-In . SVG Version: 6.00 Build 0)  -->
<!DOCTYPE svg PUBLIC "-//W3C//DTD SVG 1.1//EN" "http://www.w3.org/Graphics/SVG/1.1/DTD/svg11.dtd">
<svg version="1.1" id="Layer_1" xmlns="http://www.w3.org/2000/svg" xmlns:xlink="http://www.w3.org/1999/xlink" x="0px" y="0px"
	 width="100px" height="100px" viewBox="0 0 100 100" enable-background="new 0 0 100 100" xml:space="preserve">
<g>
	<g>
		<path fill="#1C1E3A" d="M97.365,52.635C97.652,75.869,80.296,96,57.008,99.467C54.63,99.818,52.219,100,49.84,100
			C26.563,100,6.518,82.761,3.211,59.9C1.003,44.581,5.206,31.065,15.713,19.735c1.483-1.6,3.243-2.486,4.929-2.486
			c1.344,0,2.646,0.555,3.755,1.6c1.056,1.003,1.632,2.262,1.675,3.659c0.043,1.75-0.736,3.563-2.208,5.121
			c-10.54,11.148-12.993,27.203-6.251,40.9c6.017,12.246,18.562,20.162,31.95,20.162c1.269,0,2.55-0.075,3.808-0.213
			c14.85-1.696,25.367-9.805,30.393-23.448c4.961-13.431,2.326-26.328-7.595-37.327c-2.144-2.379-2.72-4.278-1.995-6.539
			c0.725-2.24,2.24-3.456,4.79-3.83c0.267-0.043,0.533-0.064,0.789-0.064c1.504,0,2.923,0.736,4.343,2.24
			C92.991,28.931,97.333,39.759,97.365,52.635z"/>
		<path fill="#1C1E3A" d="M71.623,18.935c-0.096,0.192-0.182,0.405-0.268,0.608"/>
	</g>
	<g>
		<path fill="#1C1E3A" d="M55.718,6.902c0.011,15.458,0.011,30.905,0,46.362c0,3.36-1.515,6.945-5.771,6.945
			c-3.435,0-5.654-2.773-5.665-7.041V26.232c0-6.475-0.011-12.961,0-19.437c0-4.032,2.272-6.763,5.654-6.795H50
			C53.467,0,55.718,2.71,55.718,6.902z"/>
	</g>
</g>
</svg>
