<?xml version="1.0" encoding="utf-8"?>
<!-- Generator: Adobe Illustrator 17.0.0, SVG Export Plug-In . SVG Version: 6.00 Build 0)  -->
<!DOCTYPE svg PUBLIC "-//W3C//DTD SVG 1.1//EN" "http://www.w3.org/Graphics/SVG/1.1/DTD/svg11.dtd">
<svg version="1.1" id="Layer_1" xmlns="http://www.w3.org/2000/svg" xmlns:xlink="http://www.w3.org/1999/xlink" x="0px" y="0px"
	 width="100px" height="100px" viewBox="0 0 100 100" enable-background="new 0 0 100 100" xml:space="preserve">
<path fill="#1C1E3A" d="M76.111,0c0.322,0.141,0.671,0.091,1.005,0.129c2.688,0.305,5.223,1.088,7.608,2.361
	c1.228,0.655,2.385,1.413,3.455,2.298c2.205,1.823,3.99,3.984,5.336,6.52c1.113,2.098,1.854,4.313,2.219,6.649
	c0.322,2.056,0.332,4.12,0.041,6.187c-0.344,2.456-1.08,4.783-2.256,6.963c-2.394,4.438-5.906,7.665-10.543,9.652
	c-2.634,1.128-5.395,1.657-8.254,1.66c-4.106,0.004-8.216-0.01-12.322-0.011c-2.084,0-4.166,0.013-6.25,0.011
	c-1.157-0.001-1.998-0.839-1.979-1.95c0.019-1.008,0.849-1.826,1.929-1.83c3.332-0.011,6.666,0.007,9.998,0.004
	c3.252-0.003,6.506,0.072,9.754-0.051c3.527-0.134,6.715-1.379,9.508-3.542c3.475-2.692,5.729-6.188,6.517-10.526
	c1.122-6.182-0.612-11.521-5.08-15.917c-2.657-2.614-5.899-4.137-9.603-4.662c-0.941-0.134-1.887-0.179-2.836-0.179
	c-8.125,0-16.25,0.001-24.375,0.001c-8.217,0-16.434-0.001-24.65-0.001c-8.117,0-15.146,5.423-17.034,13.307
	C6.94,22.746,8.17,27.914,11.898,32.416c2.691,3.25,6.178,5.209,10.328,5.972c0.944,0.174,1.9,0.252,2.862,0.248
	c1.226-0.006,2.452-0.01,3.678,0c1.326,0.012,2.174,0.961,1.996,2.215c-0.122,0.86-0.895,1.562-1.812,1.562
	c-2.047,0-4.1,0.107-6.139-0.132c-3.655-0.43-6.991-1.71-9.974-3.872c-3.188-2.31-5.575-5.274-7.117-8.897
	c-0.439-1.033-0.785-2.103-1.063-3.199c-0.523-2.055-0.725-4.136-0.612-6.242c0.147-2.743,0.794-5.371,1.981-7.856
	c2.076-4.346,5.25-7.637,9.52-9.865c2.313-1.207,4.775-1.932,7.369-2.223C23.239,0.09,23.579,0.145,23.89,0c0.115,0,0.231,0,0.347,0
	c0.086,0.121,0.212,0.068,0.32,0.068c4.709,0.001,9.419,0,14.128,0.001c4.652,0,9.304,0.004,13.956,0.004
	c7.648,0.001,15.297,0,22.945-0.003c0.107,0,0.234,0.056,0.316-0.07C75.973,0,76.042,0,76.111,0z"/>
<path fill="#1C1E3A" d="M75.902,0c-0.082,0.126-0.209,0.07-0.316,0.07c-7.648,0.003-15.297,0.004-22.945,0.003
	c-4.652,0-9.304-0.003-13.956-0.004c-4.709-0.001-9.419,0-14.128-0.001c-0.108,0-0.234,0.053-0.32-0.068C41.459,0,58.682,0,75.902,0
	z"/>
<path fill="#1C1E3A" d="M86.68,99.938c-0.011,0.021-0.015,0.041-0.013,0.063c-13.24,0-26.481,0-39.722,0c0-0.021,0-0.044,0-0.065
	c0.081-0.002,0.161-0.004,0.242-0.004c10.377,0,20.752,0,31.129,0.002C81.104,99.932,83.893,99.936,86.68,99.938z"/>
<path fill="#1C1E3A" d="M46.945,99.934c0,0.022,0,0.045,0,0.066c-6.875,0-13.75,0-20.625,0c-0.003-0.021-0.009-0.041-0.017-0.061
	c0.047-0.004,0.093-0.013,0.139-0.013c3.365,0.001,6.729,0.003,10.095,0.003C40.007,99.932,43.476,99.934,46.945,99.934z"/>
<path fill="#1C1E3A" d="M46.945,99.934c-3.47,0-6.938-0.002-10.408-0.004c-3.365,0-6.729,0-10.095-0.002
	c-0.046,0-0.092,0.008-0.139,0.012c-0.862-0.166-1.532-0.994-1.503-1.857c0.032-0.943,0.754-1.781,1.664-1.82
	c1.12-0.048,2.243-0.021,3.366-0.023c3.031-0.002,6.063,0.001,9.095-0.002c0.095,0,0.203,0.049,0.322-0.063
	c-0.29-0.236-0.573-0.462-0.851-0.693c-1.807-1.515-3.711-2.908-5.424-4.535c-1.484-1.408-2.685-3.049-3.892-4.688
	c-2.198-2.982-4.4-5.964-6.601-8.945c-1.179-1.599-2.352-3.201-3.539-4.791c-0.387-0.519-0.829-0.989-1.16-1.552
	c-2.393-4.063,0.095-9.411,4.746-10.202c1.979-0.338,3.783,0.074,5.389,1.277c2.2,1.648,4.383,3.319,6.578,4.975
	c0.236,0.179,0.452,0.472,0.823,0.276c0.353-0.185,0.248-0.519,0.248-0.801c0.005-5.765,0.003-11.525,0.005-17.289
	c0.001-3.76,0.01-7.52,0.013-11.28c0.001-1.26-0.075-2.521,0.042-3.779c0.228-2.451,2.124-4.722,4.497-5.456
	c3.643-1.128,7.375,1.044,8.302,4.563c0.21,0.794,0.208,1.598,0.209,2.406c0,3.009,0,6.017,0,9.025c0,0.419,0.004,0.428,0.402,0.262
	c2.696-1.129,5.646-0.175,7.321,1.791c0.367,0.432,0.69,0.896,0.922,1.416c0.086,0.191,0.164,0.214,0.355,0.118
	c2.445-1.21,4.809-1.054,7.002,0.565c1.049,0.774,1.857,1.796,2.242,3.084c0.083,0.278,0.172,0.347,0.471,0.233
	c2.838-1.076,5.938,0.053,7.422,2.691c0.519,0.924,0.771,1.924,0.771,2.979c0.001,4.362-0.011,8.725-0.011,13.087
	c0.002,6.827,0.009,13.652,0.013,20.479c0.001,1.517,0.006,3.031-0.006,4.547c-0.002,0.246,0.069,0.304,0.31,0.303
	c3.459-0.01,6.92-0.008,10.379-0.008c0.896,0.002,1.65,0.554,1.873,1.363c0.227,0.824-0.104,1.656-0.845,2.127
	c-0.177,0.112-0.364,0.195-0.576,0.213c-2.786-0.002-5.575-0.006-8.362-0.006c-10.377-0.002-20.752,0-31.129,0
	C47.106,99.932,47.026,99.934,46.945,99.934z M71.76,76.756c0-1.41,0-2.82,0-4.232c0-4.836,0.002-9.674-0.002-14.51
	c0-0.242,0.006-0.492-0.05-0.725c-0.257-1.113-1.301-1.887-2.358-1.771c-1.248,0.135-2.103,1.045-2.104,2.283
	c-0.009,3.206-0.002,6.412-0.003,9.618c0,0.462,0.014,0.926-0.008,1.388c-0.051,1.148-0.801,1.84-1.873,1.86
	c-1.084,0.021-1.881-0.804-1.883-1.886c0-2.176,0.002-4.352,0-6.526c0-2.743,0.015-5.485-0.006-8.229
	c-0.01-1.137-0.552-2-1.582-2.486c-1.029-0.486-2.027-0.355-2.923,0.354c-0.764,0.604-1.042,1.433-1.04,2.383
	c0.006,3.381,0.002,6.761,0.002,10.14c0,0.219,0.004,0.437-0.06,0.651c-0.285,0.99-1.242,1.455-1.97,1.358
	c-1.063-0.142-1.729-0.897-1.729-1.911C54.17,60,54.177,55.488,54.168,50.974c-0.003-2.099-2.308-3.422-4.124-2.373
	c-0.992,0.572-1.415,1.469-1.414,2.597c0.003,3.574,0.006,7.15-0.006,10.727c-0.003,1.079-0.844,1.895-1.893,1.887
	c-1.028-0.006-1.859-0.865-1.859-1.93c-0.002-4.475-0.003-8.949-0.004-13.424c0-2.905,0.001-5.81,0-8.715
	c0-1.643,0.014-3.286-0.007-4.929c-0.021-1.633-1.584-2.9-3.192-2.615c-1.412,0.25-2.328,1.343-2.334,2.832
	c-0.012,3.252-0.011,6.504-0.011,9.756c0,6.817,0.005,13.633,0.003,20.45c-0.001,0.785,0.085,1.58-0.054,2.354
	c-0.571,3.197-4.219,4.593-6.805,2.623c-2.274-1.729-4.555-3.453-6.835-5.176c-1.273-0.963-3.117-0.789-4.181,0.387
	c-1.104,1.224-1.096,3.005,0.014,4.22c0.179,0.195,0.34,0.407,0.498,0.621c0.701,0.946,1.397,1.897,2.097,2.846
	c2.922,3.957,5.853,7.908,8.762,11.873c1.119,1.525,2.322,2.974,3.782,4.178c2.781,2.295,5.593,4.552,8.386,6.831
	c0.209,0.17,0.415,0.251,0.688,0.249c2.731-0.008,5.462-0.004,8.193-0.004c5.845,0,11.688-0.002,17.533,0.008
	c0.289,0,0.365-0.076,0.359-0.361c-0.02-0.879-0.009-1.758-0.009-2.637C71.76,87.749,71.76,82.252,71.76,76.756z"/>
<path fill="#1C1E3A" d="M43.991,10.642c5.818,0,11.638,0,17.457,0c0.81,0,1.618-0.018,2.428-0.004
	c0.979,0.018,1.737,0.718,1.873,1.702c0.112,0.827-0.457,1.696-1.304,1.978c-0.231,0.077-0.473,0.105-0.717,0.105
	c-4.894,0-9.787-0.001-14.68-0.001c-3.493,0-6.985,0.002-10.479,0c-3.539-0.003-7.078-0.012-10.617-0.015
	c-1.238-0.001-2.476,0.016-3.714,0.012c-1.046-0.003-1.818-0.658-1.957-1.636c-0.161-1.129,0.695-2.137,1.856-2.144
	c2.07-0.011,4.142,0.005,6.213,0.004c3.25-0.001,6.501-0.006,9.752-0.009c1.296-0.001,2.591,0,3.887,0
	C43.991,10.637,43.991,10.64,43.991,10.642z"/>
</svg>
