<?xml version="1.0" encoding="utf-8"?>
<!-- Generator: Adobe Illustrator 17.0.0, SVG Export Plug-In . SVG Version: 6.00 Build 0)  -->
<!DOCTYPE svg PUBLIC "-//W3C//DTD SVG 1.1//EN" "http://www.w3.org/Graphics/SVG/1.1/DTD/svg11.dtd">
<svg version="1.1" id="Layer_1" xmlns="http://www.w3.org/2000/svg" xmlns:xlink="http://www.w3.org/1999/xlink" x="0px" y="0px"
	 width="100px" height="100px" viewBox="0 0 100 100" enable-background="new 0 0 100 100" xml:space="preserve">
<path fill="#1C1E3A" d="M46.501,94.402c-1.382,0-2.764,0-4.146,0.002c-1.587-0.184-3.181-0.281-4.764-0.529
	c-2.231-0.352-4.409-0.891-6.574-1.525c-0.953-0.279-1.9-0.564-2.804-0.957c-1.818-0.791-3.633-1.588-5.365-2.566
	c-2.232-1.26-4.347-2.686-6.346-4.285c-1.273-1.02-2.506-2.091-3.628-3.271c-2.127-2.235-4.12-4.582-5.787-7.195
	c-1.698-2.665-3.122-5.46-4.252-8.409c-0.831-2.17-1.475-4.397-1.94-6.668c-0.384-1.869-0.631-3.763-0.777-5.672
	c-0.154-2.002-0.14-4.002-0.059-5.997c0.059-1.452,0.26-2.902,0.49-4.346c0.289-1.817,0.678-3.611,1.188-5.372
	c0.725-2.504,1.666-4.933,2.838-7.267c1.882-3.75,4.221-7.183,7.06-10.283c3.069-3.351,6.554-6.163,10.479-8.45
	c1.76-1.025,3.574-1.926,5.454-2.699c0.668-0.274,1.33-0.63,2.028-0.741c0.542-0.086,0.963-0.471,1.555-0.456
	c0.219,0.006,0.637-0.245,0.931-0.327c0.612-0.171,1.194-0.443,1.83-0.555c1.031-0.182,2.043-0.474,3.075-0.645
	c0.688-0.114,1.381-0.208,2.073-0.292c1.095-0.132,2.197-0.203,3.296-0.3c1.382,0,2.764,0,4.146,0.001
	c1.1,0.097,2.207,0.138,3.297,0.303c2.024,0.307,4.038,0.671,6.024,1.202c3.28,0.876,6.411,2.11,9.405,3.694
	c2.271,1.201,4.42,2.6,6.438,4.195c0.438,0.346,0.436,0.337-0.023,0.619c-2.238,1.367-4.371,2.882-6.401,4.54
	c-0.269,0.219-0.451,0.256-0.759,0.047c-2.896-1.979-6.024-3.472-9.377-4.513c-2.069-0.644-4.18-1.112-6.326-1.369
	c-2.064-0.247-4.144-0.3-6.225-0.2c-1.198,0.057-2.397,0.145-3.577,0.345c-1.73,0.294-3.446,0.655-5.132,1.183
	c-1.811,0.567-3.563,1.257-5.271,2.072c-1.913,0.913-3.718,2.017-5.422,3.271c-2.255,1.658-4.304,3.549-6.115,5.69
	c-2.17,2.564-3.974,5.36-5.359,8.424c-0.895,1.979-1.618,4.012-2.134,6.123c-0.395,1.613-0.693,3.236-0.856,4.891
	c-0.146,1.476-0.294,2.951-0.24,4.433c0.066,1.818,0.229,3.625,0.518,5.427c0.603,3.762,1.813,7.311,3.568,10.678
	c1.552,2.977,3.506,5.662,5.813,8.111c2.258,2.399,4.813,4.409,7.617,6.104c2.295,1.387,4.73,2.477,7.285,3.309
	c1.605,0.523,3.236,0.931,4.892,1.226c0.883,0.156,1.781,0.256,2.679,0.349c2.077,0.212,4.151,0.217,6.228,0.081
	c1.559-0.102,3.1-0.34,4.637-0.646c1.746-0.35,3.441-0.845,5.111-1.443c1.748-0.629,3.424-1.411,5.051-2.313
	c3.481-1.926,6.543-4.377,9.211-7.318c2.854-3.145,5.069-6.694,6.676-10.629c0.779-1.912,1.375-3.885,1.809-5.897
	c0.316-1.468,0.516-2.961,0.643-4.467c0.156-1.845,0.178-3.686,0.068-5.524c-0.093-1.575-0.324-3.137-0.625-4.693
	c-0.521-2.71-1.4-5.295-2.51-7.81c-0.098-0.222,0.009-0.285,0.105-0.382c1.743-1.746,3.52-3.458,5.406-5.049
	c0.199-0.168,0.396-0.342,0.573-0.533c0.194-0.211,0.328-0.112,0.423,0.073c0.887,1.735,1.702,3.503,2.393,5.328
	c0.68,1.798,1.23,3.639,1.66,5.508c0.336,1.461,0.604,2.941,0.769,4.438c0.132,1.192,0.194,2.388,0.303,3.58
	c0.103,1.126,0.124,2.252,0.051,3.366c-0.112,1.719-0.221,3.438-0.491,5.148c-0.343,2.153-0.802,4.272-1.435,6.356
	c-0.81,2.662-1.836,5.236-3.167,7.683c-0.551,1.014-1.167,1.987-1.758,2.976c-0.494,0.823-1.027,1.614-1.568,2.403
	c-0.699,1.021-1.544,1.93-2.326,2.886c-2.291,2.794-4.967,5.169-7.899,7.271c-2.177,1.562-4.474,2.905-6.89,4.053
	c-2.631,1.25-5.365,2.224-8.189,2.918c-1.605,0.396-3.227,0.724-4.877,0.908c-1.02,0.113-2.034,0.256-3.063,0.277
	C46.922,94.299,46.712,94.365,46.501,94.402z"/>
<path fill="#1C1E3A" d="M100,12.471c-0.499,0.279-0.995,0.565-1.498,0.837c-2.938,1.589-5.781,3.33-8.559,5.183
	c-2.737,1.828-5.391,3.776-7.93,5.867c-3.646,2.998-7.068,6.233-10.275,9.698c-2.223,2.4-4.332,4.895-6.346,7.471
	c-2.194,2.812-4.261,5.719-6.244,8.684c-2.366,3.539-4.601,7.163-6.764,10.829c-1.537,2.606-3.011,5.251-4.509,7.881
	c-0.692,1.216-1.271,2.495-1.998,3.694c-0.348,0.57-0.54,0.549-0.866,0.002c-0.564-0.947-1.059-1.938-1.614-2.891
	c-1.057-1.816-2.188-3.588-3.363-5.33c-2.065-3.058-4.264-6.016-6.596-8.875c-3.262-4.002-6.807-7.736-10.519-11.316
	c-0.747-0.721-1.516-1.42-2.294-2.107c-0.194-0.171-0.146-0.224,0.012-0.369c2.07-1.902,4.133-3.813,6.199-5.719
	c0.827-0.763,1.667-1.51,2.482-2.284c0.201-0.19,0.318-0.194,0.529-0.023c2.202,1.787,4.351,3.632,6.381,5.614
	c2.153,2.102,4.18,4.319,6.049,6.679c0.9,1.135,1.754,2.304,2.578,3.495c0.151,0.219,0.22,0.313,0.438,0.015
	c1.457-1.984,2.938-3.951,4.419-5.918c1.825-2.423,3.678-4.824,5.614-7.158c2.571-3.099,5.26-6.094,8.185-8.864
	c2.254-2.135,4.62-4.139,7.155-5.937c2.668-1.892,5.463-3.555,8.433-4.939c2.248-1.049,4.564-1.904,6.94-2.59
	c1.569-0.453,3.171-0.808,4.792-1.06c1.723-0.268,3.447-0.452,5.186-0.586c1.323-0.103,2.635-0.017,3.951-0.098
	C99.98,12.394,99.99,12.432,100,12.471z"/>
</svg>
