<?xml version="1.0" encoding="utf-8"?>
<!-- Generator: Adobe Illustrator 17.0.0, SVG Export Plug-In . SVG Version: 6.00 Build 0)  -->
<!DOCTYPE svg PUBLIC "-//W3C//DTD SVG 1.1//EN" "http://www.w3.org/Graphics/SVG/1.1/DTD/svg11.dtd">
<svg version="1.1" id="Layer_1" xmlns="http://www.w3.org/2000/svg" xmlns:xlink="http://www.w3.org/1999/xlink" x="0px" y="0px"
	 width="100px" height="100px" viewBox="0 0 100 100" enable-background="new 0 0 100 100" xml:space="preserve">
<path fill="#1C1E3A" d="M49.37,48.17c6.617,0,12.347-2.374,17.029-7.056c4.682-4.683,7.057-10.411,7.057-17.03
	c0-6.616-2.373-12.346-7.057-17.03C61.717,2.374,55.986,0,49.37,0c-6.618,0-12.348,2.374-17.03,7.056
	c-4.683,4.683-7.056,10.412-7.056,17.029c0,6.618,2.374,12.348,7.056,17.03C37.024,45.796,42.753,48.17,49.37,48.17z M36.485,11.2
	c3.593-3.593,7.807-5.339,12.885-5.339c5.076,0,9.292,1.746,12.886,5.339c3.592,3.593,5.34,7.809,5.34,12.885
	c0,5.078-1.748,9.293-5.34,12.886c-3.594,3.593-7.811,5.34-12.886,5.34c-5.077,0-9.291-1.747-12.885-5.34s-5.342-7.808-5.342-12.886
	C31.143,19.008,32.891,14.793,36.485,11.2z"/>
<path fill="#1C1E3A" d="M91.514,76.895c-0.135-1.947-0.408-4.072-0.811-6.318c-0.406-2.26-0.928-4.398-1.555-6.354
	c-0.646-2.02-1.523-4.014-2.611-5.924c-1.127-1.984-2.451-3.711-3.938-5.133c-1.555-1.486-3.457-2.681-5.658-3.554
	c-2.191-0.867-4.623-1.308-7.221-1.308c-1.021,0-2.008,0.419-3.916,1.66c-1.172,0.766-2.545,1.651-4.078,2.629
	c-1.309,0.834-3.084,1.617-5.275,2.324c-2.139,0.693-4.311,1.043-6.454,1.043c-2.142,0-4.313-0.35-6.454-1.043
	c-2.189-0.707-3.965-1.488-5.273-2.324c-1.517-0.969-2.891-1.854-4.082-2.63c-1.904-1.241-2.892-1.66-3.912-1.66
	c-2.601,0-5.029,0.44-7.221,1.309c-2.199,0.871-4.103,2.066-5.658,3.554c-1.486,1.422-2.812,3.15-3.938,5.133
	c-1.086,1.91-1.965,3.904-2.611,5.926c-0.625,1.953-1.147,4.092-1.554,6.352c-0.403,2.242-0.675,4.369-0.81,6.322
	c-0.133,1.908-0.2,3.896-0.2,5.904c0,5.221,1.659,9.445,4.932,12.563C16.448,98.441,20.723,100,25.924,100h48.152
	c5.197,0,9.475-1.559,12.707-4.635c3.273-3.113,4.932-7.342,4.932-12.563C91.715,80.787,91.646,78.799,91.514,76.895z
	 M82.742,91.119c-2.135,2.033-4.971,3.02-8.668,3.02h-48.15c-3.697,0-6.533-0.986-8.668-3.02c-2.094-1.994-3.111-4.715-3.111-8.318
	c0-1.873,0.062-3.723,0.185-5.5c0.121-1.742,0.366-3.656,0.731-5.689c0.361-2.01,0.82-3.895,1.366-5.602
	c0.524-1.637,1.239-3.258,2.126-4.818c0.846-1.488,1.82-2.764,2.895-3.793c1.005-0.963,2.271-1.748,3.764-2.34
	c1.38-0.547,2.932-0.846,4.615-0.891c0.205,0.109,0.57,0.318,1.163,0.703c1.204,0.785,2.593,1.682,4.128,2.662
	c1.73,1.102,3.96,2.1,6.623,2.959c2.723,0.879,5.5,1.328,8.257,1.328c2.756,0,5.534-0.447,8.256-1.328
	c2.666-0.861,4.893-1.857,6.627-2.961c1.57-1.004,2.92-1.875,4.125-2.66c0.592-0.385,0.957-0.594,1.162-0.703
	c1.686,0.045,3.236,0.344,4.617,0.889c1.492,0.592,2.758,1.379,3.764,2.342c1.074,1.027,2.047,2.303,2.893,3.793
	c0.889,1.559,1.604,3.18,2.127,4.814c0.547,1.709,1.008,3.594,1.367,5.602c0.365,2.037,0.611,3.953,0.732,5.691v0.002
	c0.123,1.77,0.186,3.619,0.188,5.498C85.854,86.406,84.838,89.127,82.742,91.119z"/>
</svg>
