<?xml version="1.0" encoding="utf-8"?>
<!-- Generator: Adobe Illustrator 17.0.0, SVG Export Plug-In . SVG Version: 6.00 Build 0)  -->
<!DOCTYPE svg PUBLIC "-//W3C//DTD SVG 1.1//EN" "http://www.w3.org/Graphics/SVG/1.1/DTD/svg11.dtd">
<svg version="1.1" id="Layer_1" xmlns="http://www.w3.org/2000/svg" xmlns:xlink="http://www.w3.org/1999/xlink" x="0px" y="0px"
	 width="100px" height="100px" viewBox="0 0 100 100" enable-background="new 0 0 100 100" xml:space="preserve">
<path fill="#1C1E3A" d="M68.822,0.011c-0.008,2.091-0.018,4.181-0.021,6.272c-0.004,1.938,0.008,3.877-0.008,5.815
	c-0.003,0.332,0.087,0.425,0.422,0.424c2.227-0.003,4.457-0.058,6.68,0.047c4.207,0.199,7.996,3.874,8.441,8.063
	c0.063,0.593,0.09,1.185,0.09,1.781c-0.002,7.43-0.001,14.86-0.001,22.29c0,0.183,0,0.367,0,0.597
	c-1.387-0.529-2.755-0.967-4.168-1.259c-0.85-0.176-1.698-0.295-2.573-0.295c-23.582,0.008-47.165,0.008-70.747-0.007
	c-0.543,0-0.651,0.149-0.65,0.665c0.015,12.14,0.012,24.28,0.012,36.419c0,2.304,1.251,3.549,3.565,3.549
	c11.647,0,23.293,0.002,34.94-0.009c0.408,0,0.613,0.1,0.78,0.503c0.78,1.891,1.823,3.636,3.062,5.263
	c0.1,0.133,0.201,0.264,0.369,0.486c-0.276,0-0.468,0-0.66,0c-12.837,0-25.674-0.063-38.51,0.029
	c-5.304,0.039-9.666-3.947-9.8-9.222c0.006-0.151,0.017-0.305,0.017-0.457c0.001-19.641,0.001-39.282,0-58.923
	c0-0.135-0.01-0.271-0.016-0.406c0.053-0.489,0.07-0.985,0.165-1.465c0.903-4.558,4.678-7.652,9.328-7.657
	c2.887-0.003,5.774-0.011,8.661,0.01c0.468,0.004,0.636-0.076,0.626-0.595c-0.036-1.935-0.017-3.872-0.014-5.808
	c0.004-2.037,0.014-4.074,0.021-6.111c2.074,0,4.149,0,6.223,0c0,3.993,0.007,7.987-0.01,11.98
	c-0.002,0.413,0.082,0.535,0.519,0.534c12.15-0.013,24.3-0.013,36.451-0.001c0.435,0,0.526-0.125,0.524-0.538
	c-0.017-3.84-0.009-7.681-0.011-11.521c0-0.151-0.021-0.303-0.032-0.454C64.605,0.011,66.714,0.011,68.822,0.011z M42.248,37.485
	c11.798,0,23.596-0.003,35.395,0.011c0.455,0.001,0.556-0.116,0.553-0.561c-0.016-4.93-0.008-9.86-0.012-14.79
	c0-2.079-1.285-3.377-3.358-3.387c-1.853-0.009-3.706,0.011-5.56-0.012c-0.392-0.005-0.469,0.106-0.466,0.478
	c0.017,2.822,0.002,5.644,0.017,8.466c0.002,0.358-0.094,0.456-0.451,0.452c-1.785-0.018-3.57-0.021-5.355,0.002
	c-0.396,0.005-0.474-0.12-0.472-0.489c0.015-2.788-0.005-5.576,0.021-8.364c0.004-0.469-0.135-0.544-0.563-0.544
	c-12.138,0.012-24.276,0.013-36.414-0.004c-0.476-0.001-0.537,0.144-0.535,0.563c0.018,2.788,0.001,5.576,0.019,8.364
	c0.003,0.388-0.1,0.477-0.478,0.473c-1.768-0.021-3.536-0.024-5.304,0.001c-0.4,0.006-0.468-0.12-0.466-0.486
	c0.015-2.822,0.001-5.644,0.017-8.466c0.002-0.361-0.098-0.446-0.45-0.444c-2.907,0.015-5.814,0.007-8.721,0.01
	c-0.321,0-0.643,0.001-0.961,0.086c-1.498,0.398-2.394,1.598-2.395,3.253c-0.004,4.93,0.007,9.86-0.014,14.79
	c-0.002,0.494,0.119,0.61,0.61,0.609C18.686,37.482,30.467,37.485,42.248,37.485z"/>
<path fill="#1C1E3A" d="M73.005,99.989c-0.519-0.222-1.081-0.175-1.62-0.272c-9.953-1.802-16.729-7.447-20.072-16.973
	c-3.396-9.678,0.035-20.87,8.103-27.235c4.81-3.795,10.276-5.716,16.397-5.481C83.896,50.339,90.389,53.83,95.23,60.3
	c2.758,3.683,4.283,7.87,4.707,12.454c0.008,0.08-0.012,0.174,0.103,0.2c0,1.36,0,2.72,0,4.081c-0.239,0.654-0.209,1.35-0.321,2.025
	c-1.781,10.678-10.244,19.015-20.962,20.651c-0.625,0.095-1.269,0.07-1.875,0.277C75.589,99.989,74.297,99.989,73.005,99.989z
	 M93.803,75.018c0.016-10.304-8.383-18.726-18.716-18.769c-10.313-0.043-18.784,8.397-18.799,18.731
	c-0.015,10.318,8.448,18.783,18.767,18.771C85.373,93.741,93.787,85.333,93.803,75.018z"/>
<path fill="#1C1E3A" d="M-0.04,21.639c0.028-0.003,0.057-0.004,0.086-0.002c0.005,0.135,0.016,0.271,0.016,0.406
	c0.001,19.641,0.001,39.282,0,58.923c0,0.152-0.011,0.306-0.017,0.457l-0.042,0.002l-0.042-0.004
	C-0.04,61.494-0.04,41.567-0.04,21.639z"/>
<path fill="#1C1E3A" d="M26.639,68.746c3.468,0,6.937,0.008,10.405-0.01c0.433-0.002,0.527,0.123,0.522,0.539
	c-0.025,1.768-0.019,3.535-0.003,5.304c0.003,0.328-0.078,0.424-0.419,0.424c-7.022-0.011-14.043-0.011-21.065,0
	c-0.35,0.001-0.41-0.112-0.408-0.429c0.014-1.803,0.019-3.604-0.003-5.406c-0.005-0.383,0.134-0.43,0.465-0.429
	C19.634,68.75,23.136,68.746,26.639,68.746z"/>
<path fill="#1C1E3A" d="M26.587,59.378c-3.468,0-6.935-0.009-10.402,0.011c-0.437,0.004-0.523-0.121-0.518-0.535
	c0.024-1.767,0.018-3.535,0.004-5.303c-0.002-0.316,0.06-0.432,0.411-0.432c7.02,0.011,14.04,0.011,21.06,0
	c0.347-0.001,0.424,0.107,0.421,0.432c-0.014,1.785-0.017,3.57,0.002,5.354c0.004,0.372-0.079,0.483-0.472,0.481
	C33.59,59.371,30.088,59.378,26.587,59.378z"/>
<path fill="#1C1E3A" d="M79.688,78.124c-2.432,0-4.862-0.011-7.293,0.011c-0.418,0.004-0.5-0.124-0.498-0.514
	c0.013-4.879,0.012-9.758,0-14.637c-0.002-0.364,0.063-0.498,0.465-0.492c1.785,0.023,3.57,0.02,5.354,0.002
	c0.36-0.004,0.453,0.098,0.451,0.454c-0.015,2.805,0,5.61-0.017,8.415c-0.002,0.396,0.095,0.506,0.498,0.504
	c2.806-0.02,5.61,0,8.416-0.021c0.396-0.003,0.476,0.111,0.472,0.482c-0.019,1.785-0.019,3.57,0,5.355
	c0.004,0.358-0.099,0.451-0.453,0.449C84.617,78.116,82.152,78.124,79.688,78.124z"/>
</svg>
