<?xml version="1.0" encoding="utf-8"?>
<!-- Generator: Adobe Illustrator 17.0.0, SVG Export Plug-In . SVG Version: 6.00 Build 0)  -->
<!DOCTYPE svg PUBLIC "-//W3C//DTD SVG 1.1//EN" "http://www.w3.org/Graphics/SVG/1.1/DTD/svg11.dtd">
<svg version="1.1" id="Capa_1" xmlns="http://www.w3.org/2000/svg" xmlns:xlink="http://www.w3.org/1999/xlink" x="0px" y="0px"
	 width="100px" height="100px" viewBox="0 0 100 100" enable-background="new 0 0 100 100" xml:space="preserve">
<g>
	<path fill="#1C1E3A" stroke="#FFFFFF" stroke-miterlimit="10" d="M84.99,25.267c-1.327-1.326-3.411-1.522-4.962-0.466
		c-5.846,3.984-35.162,24.018-38.313,27.167c-4.569,4.57-4.569,12.004,0,16.574c2.285,2.283,5.286,3.426,8.286,3.426
		c3.001,0,6.002-1.141,8.287-3.426c3.15-3.152,23.184-32.468,27.168-38.314C86.513,28.678,86.317,26.594,84.99,25.267z
		 M52.763,63.018c-1.523,1.523-4.001,1.523-5.523,0c-1.523-1.521-1.523-4-0.002-5.521c1.225-1.211,9.549-7.147,19.789-14.266
		C59.909,53.471,53.972,61.795,52.763,63.018z"/>
	<path fill="#1C1E3A" stroke="#FFFFFF" stroke-miterlimit="10" d="M18.015,78.424l-4.822,2.354
		c-3.528-6.299-5.379-13.326-5.379-20.521c0-5.271,0.973-10.322,2.746-14.977l5.526,2.649c0.545,0.261,1.12,0.385,1.687,0.385
		c1.457,0,2.854-0.816,3.525-2.218c0.934-1.944,0.112-4.278-1.833-5.212l-5.455-2.617c6.781-11.059,18.513-18.769,32.087-20.021
		v5.875c0,2.157,1.75,3.906,3.906,3.906c2.157,0,3.906-1.749,3.906-3.906v-5.878c4.654,0.424,9.156,1.608,13.432,3.538
		c1.967,0.888,4.28,0.013,5.167-1.953c0.888-1.966,0.013-4.28-1.952-5.168c-6.479-2.924-13.394-4.407-20.554-4.407
		c-13.354,0-25.912,5.201-35.354,14.645c-9.444,9.444-14.646,22-14.646,35.355c0,9.869,2.929,19.469,8.472,27.758
		c0.746,1.115,1.98,1.736,3.25,1.736c0.576,0,1.16-0.129,1.709-0.396l8.008-3.906c1.939-0.945,2.744-3.283,1.799-5.223
		C22.293,78.285,19.954,77.479,18.015,78.424z"/>
	<path fill="#1C1E3A" stroke="#FFFFFF" stroke-miterlimit="10" d="M95.594,39.704c-0.887-1.966-3.2-2.841-5.168-1.953
		c-1.966,0.888-2.841,3.201-1.952,5.167c2.465,5.461,3.715,11.293,3.715,17.338c0,7.205-1.857,14.246-5.396,20.549l-5.035-2.396
		c-1.947-0.928-4.279-0.102-5.206,1.848c-0.928,1.947-0.1,4.279,1.847,5.205l8.203,3.906c0.541,0.258,1.112,0.381,1.678,0.381
		c1.27,0,2.504-0.621,3.248-1.736C97.071,79.724,100,70.124,100,60.255C100.001,53.096,98.519,46.181,95.594,39.704z"/>
</g>
</svg>
