<?xml version="1.0" encoding="utf-8"?>
<!-- Generator: Adobe Illustrator 17.0.0, SVG Export Plug-In . SVG Version: 6.00 Build 0)  -->
<!DOCTYPE svg PUBLIC "-//W3C//DTD SVG 1.1//EN" "http://www.w3.org/Graphics/SVG/1.1/DTD/svg11.dtd">
<svg version="1.1" id="Layer_1" xmlns="http://www.w3.org/2000/svg" xmlns:xlink="http://www.w3.org/1999/xlink" x="0px" y="0px"
	 width="100px" height="100px" viewBox="0 0 100 100" enable-background="new 0 0 100 100" xml:space="preserve">
<g>
	<path fill="#1C1E3A" d="M14.075,0c19.271,0,38.541,0,57.812,0c0.081,0.745,0.768,0.995,1.217,1.406
		c5.379,4.921,10.764,9.834,16.195,14.696c0.938,0.84,1.372,1.666,1.37,2.971c-0.043,24.541-0.03,49.082-0.032,73.624
		c0,4.919-2.378,7.301-7.285,7.301c-22.199,0.002-44.396,0.002-66.594,0c-5.038,0-7.368-2.346-7.368-7.416
		C9.387,64.396,9.435,36.21,9.331,8.024C9.317,4.189,10.533,1.518,14.075,0z M15.637,49.804c0,14.061,0.012,28.122-0.022,42.182
		c-0.003,1.199,0.043,1.809,1.584,1.805c21.873-0.061,43.744-0.052,65.617-0.012c1.266,0.002,1.602-0.309,1.6-1.59
		c-0.041-22.914-0.04-45.829-0.001-68.744c0.002-1.261-0.3-1.626-1.588-1.604c-4.751,0.081-9.504-0.002-14.255,0.058
		c-1.1,0.014-1.416-0.284-1.399-1.393c0.065-4.165-0.047-8.334,0.065-12.497c0.039-1.467-0.344-1.803-1.801-1.797
		c-16.015,0.059-32.028,0.059-48.042,0c-1.461-0.005-1.803,0.342-1.796,1.799C15.662,21.942,15.637,35.873,15.637,49.804z
		 M73.445,10.198c0,1.797-0.014,3.097,0.008,4.396c0.007,0.404-0.206,1.027,0.525,1.014c1.688-0.031,3.396,0.199,5.269-0.164
		C77.289,13.675,75.525,12.08,73.445,10.198z"/>
	<path fill="#1C1E3A" d="M50.211,29.688c8.723,0,17.445,0.039,26.166-0.038c1.462-0.013,1.829,0.339,1.799,1.8
		c-0.089,4.486-0.019,4.487-4.539,4.487c-16.598,0-33.197-0.026-49.795,0.042c-1.624,0.007-2.046-0.371-1.999-1.999
		c0.124-4.289,0.038-4.292,4.348-4.292C34.198,29.688,42.205,29.688,50.211,29.688z"/>
	<path fill="#1C1E3A" d="M41.421,48.437c-5.988,0-11.976-0.038-17.964,0.031c-1.266,0.015-1.612-0.308-1.604-1.591
		c0.03-4.689-0.022-4.689,4.723-4.689c10.869,0,21.739,0.031,32.607-0.037c1.45-0.009,1.836,0.321,1.807,1.793
		c-0.092,4.492-0.02,4.493-4.534,4.493C51.443,48.437,46.433,48.437,41.421,48.437z"/>
	<path fill="#1C1E3A" d="M26.573,74.962c0-2.603,0.048-5.206-0.024-7.807c-0.028-1.032,0.285-1.343,1.307-1.294
		c2.143,0.105,4.302-0.031,6.434,0.16c3.22,0.291,5.412,2.033,6.37,5.172c0.719,2.355,0.726,4.764,0.153,7.132
		c-0.825,3.409-3.284,5.481-6.792,5.68c-2.399,0.136-4.81,0.05-7.216,0.062c-0.504-2.239-0.112-4.51-0.227-6.765
		C26.54,76.525,26.573,75.743,26.573,74.962z M37.185,75.17c0.06-4.377-1.582-6.152-5.443-6.009
		c-0.898,0.032-1.258,0.231-1.242,1.194c0.052,3.112,0.04,6.228,0.005,9.34c-0.009,0.822,0.233,1.09,1.092,1.146
		C35.393,81.086,37.128,79.364,37.185,75.17z"/>
	<path fill="#1C1E3A" d="M42.104,75.176c0.053-1.4,0.09-2.621,0.419-3.834c1.04-3.836,3.651-5.799,7.715-5.717
		c3.827,0.076,6.388,2.242,7.222,6.082c0.447,2.057,0.509,4.109,0.081,6.182c-0.921,4.451-3.619,6.631-8.068,6.479
		c-3.978-0.137-6.659-2.725-7.234-7.026C42.135,76.57,42.14,75.786,42.104,75.176z M46.113,75.018
		c-0.115,1.151,0.064,2.375,0.456,3.553c0.528,1.592,1.631,2.436,3.354,2.438c1.704,0.002,2.856-0.758,3.375-2.386
		c0.772-2.421,0.774-4.855-0.013-7.275c-0.531-1.633-1.698-2.363-3.396-2.354c-1.728,0.009-2.81,0.88-3.333,2.467
		C46.189,72.576,46.022,73.736,46.113,75.018z"/>
	<path fill="#1C1E3A" d="M73.385,79.423c-1.722,3.896-4.416,5.459-8.351,4.899c-3.321-0.473-5.517-2.988-6.048-6.903
		c-0.363-2.685-0.295-5.338,0.859-7.829c1.281-2.765,3.573-4.027,6.58-3.96c2.627,0.06,4.873,0.868,5.957,3.535
		c0.2,0.492,0.977,1.294,0.061,1.554c-1.075,0.305-2.396,1.563-3.406,0.1c-0.868-1.258-1.794-2.021-3.354-1.752
		c-1.605,0.276-2.203,1.51-2.521,2.877c-0.538,2.31-0.581,4.654,0.185,6.916c0.735,2.179,3.404,2.873,5.063,1.418
		C70.547,78.402,70.547,78.402,73.385,79.423z"/>
</g>
</svg>
