<?xml version="1.0" encoding="utf-8"?>
<!-- Generator: Adobe Illustrator 17.0.0, SVG Export Plug-In . SVG Version: 6.00 Build 0)  -->
<!DOCTYPE svg PUBLIC "-//W3C//DTD SVG 1.1//EN" "http://www.w3.org/Graphics/SVG/1.1/DTD/svg11.dtd">
<svg version="1.1" id="Layer_1" xmlns="http://www.w3.org/2000/svg" xmlns:xlink="http://www.w3.org/1999/xlink" x="0px" y="0px"
	 width="100px" height="100px" viewBox="0 0 100 100" enable-background="new 0 0 100 100" xml:space="preserve">
<g>
	<path fill="#1C1E3A" d="M94.329,16.009c-3.157,1.757-6.323,3.503-9.556,5.117c-1.236,0.614-1.797,1.44-2.117,2.741
		c-2.045,8.358-4.137,16.706-6.279,25.043c-0.327,1.272-0.218,2.355,0.303,3.553c2.221,5.116,4.395,10.253,6.521,15.414
		c1.399,3.395,0.342,5.859-3.028,7.35c-0.91,0.543-1.92,0.385-2.895,0.385c-20.338,0.006-40.67,0.006-61.003,0.006
		c-0.985,0-1.984,0.1-2.905-0.4c-2.845-1.32-3.958-3.039-3.468-5.75c0.435-2.42,1.88-3.935,4.468-4.117
		c0.643,0.762,1.524,0.465,2.311,0.465c17.102,0.016,34.198,0.016,51.298,0c0.783,0,1.674,0.308,2.291-0.5
		c-0.42-3.305-2.092-6.164-3.414-9.123c-1.365-3.068-1.599-5.918-0.688-9.239c2.566-9.333,4.789-18.754,7.041-28.17
		c0.618-2.593,1.87-4.365,4.33-5.552c4.063-1.964,7.962-4.256,11.965-6.339c3.083-1.603,5.913-0.757,7.502,2.128
		C98.343,11.441,97.254,14.386,94.329,16.009z"/>
	<path fill="#1C1E3A" d="M35.748,12.909c8.326,0,16.65-0.013,24.977,0.004c5.779,0.012,8.899,3.99,7.539,9.647
		c-2.634,10.95-5.296,21.893-7.968,32.834c-1.198,4.905-4.364,6.963-9.349,5.926c-12.557-2.61-25.094-5.318-37.649-7.941
		c-3.699-0.771-5.677-3.033-6.316-6.665c-1.456-8.26-2.974-16.509-4.396-24.774c-0.916-5.323,2.258-9.012,7.692-9.025
		C18.768,12.894,27.258,12.909,35.748,12.909z M35.431,20.158c-7.991,0-15.981-0.007-23.972,0.009
		c-0.994,0.002-2.223-0.387-1.857,1.555C11,29.15,12.299,36.598,13.577,44.048c0.264,1.537,0.79,2.284,2.539,2.636
		c11.599,2.333,23.174,4.792,34.718,7.38c2.031,0.455,2.664,0.055,3.123-1.914c2.299-9.843,4.695-19.665,7.176-29.462
		c0.506-2.003,0.135-2.595-1.979-2.568C51.248,20.217,43.339,20.158,35.431,20.158z"/>
	<path fill="#1C1E3A" d="M28.776,89.65c-0.011,5.64-4.717,10.326-10.359,10.317C12.709,99.96,7.9,95.096,7.966,89.395
		c0.066-5.703,4.685-10.029,10.42-10.313C22.909,78.854,29.653,84.579,28.776,89.65z"/>
	<path fill="#1C1E3A" d="M84.113,92.047c-1.453,5.143-6.401,8.6-11.237,7.852c-5.573-0.86-9.112-5.168-9.144-10.806
		c-0.027-4.702,4.064-9.278,8.858-9.905c5.267-0.688,10.798,2.948,11.538,7.916C83.365,88.749,83.391,90.396,84.113,92.047z"/>
	<path fill="#1C1E3A" d="M59.3,8.839c-0.005,0.747-0.528,0.327-0.886,0.327H24.736c-0.104,0-0.213-0.08-0.317-0.173
		c-0.064-0.06-0.124-0.124-0.188-0.178C24.607,6.89,24.919,5,25.384,3.1c0.648-2.652,2.241-3.533,4.978-2.905
		c3.078,0.708,6.16,1.411,9.218,2.188c5.77,1.484,11.673,2.326,17.389,4.058C58.33,6.854,59.018,7.552,59.3,8.839z"/>
	<path fill="#1C1E3A" d="M84.113,92.047c-0.725-1.648-0.748-3.298,0.017-4.943C84.77,88.753,84.701,90.4,84.113,92.047z"/>
	<path fill="#1C1E3A" d="M55.871,25.119C54.4,31.64,53.253,38.306,51.16,44.684c-0.688,2.103-2.103,2.598-3.929,2.182
		c-8.793-1.979-17.572-3.993-26.345-6.062c-2.647-0.624-3.578-1.883-3.053-4.417c0.836-4.078,1.584-8.3,2.895-12.268
		c0.188-0.164,0.376-0.11,0.564-0.605H55.43C56.9,24.01,55.752,24.614,55.871,25.119z"/>
</g>
</svg>
