<?xml version="1.0" encoding="utf-8"?>
<!-- Generator: Adobe Illustrator 16.0.0, SVG Export Plug-In . SVG Version: 6.00 Build 0)  -->
<!DOCTYPE svg PUBLIC "-//W3C//DTD SVG 1.1//EN" "http://www.w3.org/Graphics/SVG/1.1/DTD/svg11.dtd">
<svg version="1.1" id="Layer_1" xmlns="http://www.w3.org/2000/svg" xmlns:xlink="http://www.w3.org/1999/xlink" x="0px" y="0px"
	 width="100px" height="100px" viewBox="0 0 100 100" enable-background="new 0 0 100 100" xml:space="preserve">
<path fill-rule="evenodd" clip-rule="evenodd" fill="#10153C" d="M0,27.392c0.451-0.417,0.403-1.028,0.593-1.544
	c1.485-4.061,5.315-6.887,9.652-6.896c15.664-0.035,31.327-0.017,46.989-0.009c1.393,0,2.416,0.855,2.434,1.958
	c0.02,1.178-1.055,2.014-2.631,2.014c-13.757,0.003-27.514,0.002-41.271,0.002c-2.072,0-4.144-0.001-6.215,0.002
	c-0.331,0-0.68-0.039-0.989,0.05c-0.826,0.235-1.968,0.343-2.236,1.098c-0.222,0.627,0.878,1.044,1.419,1.513
	C20.767,36.855,33.808,48.11,46.816,59.402c0.818,0.709,1.283,0.481,1.968-0.113c5.406-4.7,10.837-9.372,16.265-14.048
	c1.104-0.952,2.309-0.982,3.054-0.102c0.808,0.955,0.623,2.011-0.524,3.001c-5.986,5.169-11.972,10.339-17.959,15.506
	c-1.576,1.359-2.18,1.363-3.731,0.021C32.261,51.889,18.635,40.108,5.006,28.332c-0.269-0.232-0.493-0.55-1.027-0.614
	c0,0.422,0,0.816,0,1.211c0,17.279,0.004,34.559-0.009,51.838c-0.001,1.059,0.239,2.016,0.701,2.961
	c0.364,0.746,0.68,0.738,1.291,0.246c4.062-3.266,8.149-6.5,12.229-9.744c5.343-4.25,10.685-8.502,16.029-12.75
	c0.862-0.684,1.753-1.104,2.775-0.27c1.072,0.879,1.042,2.125-0.197,3.137c-2.693,2.197-5.424,4.346-8.145,6.51
	c-6.502,5.168-13.007,10.33-19.686,15.635c26.441,0,52.663,0,79.187,0c-2.032-1.535-3.854-2.922-5.684-4.295
	c-7.774-5.826-15.553-11.648-23.327-17.473c-0.771-0.578-1.581-1.186-1.391-2.291c0.13-0.756,0.612-1.301,1.401-1.588
	c0.909-0.33,1.52,0.189,2.131,0.643c4.344,3.234,8.672,6.492,13.004,9.744c5.355,4.02,10.722,8.029,16.058,12.076
	c0.834,0.633,1.09,0.387,1.153-0.5c0.026-0.371,0.012-0.746,0.012-1.119c0-11.146,0.002-22.292-0.004-33.439
	c0-0.583-0.006-1.159,0.26-1.696c0.37-0.748,0.975-1.074,1.808-1.052c0.788,0.021,1.353,0.367,1.653,1.081
	c0.142,0.334,0.251,0.713,0.252,1.072c0.012,11.396,0.068,22.79-0.025,34.185c-0.035,4.299-3.191,7.705-7.426,8.498
	c-0.092,0.018-0.165,0.141-0.247,0.215c-26.442,0-52.884,0-79.325,0c-0.182-0.43-0.643-0.326-0.951-0.418
	c-2.698-0.801-4.667-2.48-6.142-4.832C0.734,84.299,0.596,83.105,0,82.1C0,63.863,0,45.627,0,27.392z"/>
<path fill-rule="evenodd" clip-rule="evenodd" fill="#45B89F" d="M81.771,45.917c-9.848-0.01-18.283-8.442-18.248-18.257
	c0.037-10.234,9.018-18.313,18.41-18.212c9.553,0.103,18.217,8.564,18.064,18.573C99.854,37.533,91.418,45.926,81.771,45.917z
	 M67.391,27.6c-0.011,8.173,6.088,14.382,14.061,14.48c8.02,0.099,14.753-5.65,14.691-14.485c-0.057-8.3-5.969-14.148-14.27-14.311
	C73.688,13.125,67.4,19.44,67.391,27.6z"/>
<path fill-rule="evenodd" clip-rule="evenodd" fill="#45B89F" d="M81.563,26.368c-0.591,0.502-0.938,0.871-1.353,1.136
	c-0.945,0.606-1.869,0.428-2.529-0.415c-0.617-0.789-0.643-1.759,0.107-2.486c1.486-1.439,3.039-2.811,4.594-4.176
	c0.559-0.49,1.227-0.641,1.945-0.261c0.918,0.484,1.217,1.277,1.217,2.254c-0.006,3.978-0.003,7.955-0.003,11.933
	c0,0.041,0.001,0.083-0.001,0.124c-0.052,1.362-0.95,2.395-2.046,2.351c-1.063-0.042-1.911-1.031-1.925-2.339
	c-0.024-2.237-0.007-4.475-0.007-6.712C81.563,27.378,81.563,26.98,81.563,26.368z"/>
</svg>
