<?xml version="1.0" encoding="utf-8"?>
<!-- Generator: Adobe Illustrator 16.0.0, SVG Export Plug-In . SVG Version: 6.00 Build 0)  -->
<!DOCTYPE svg PUBLIC "-//W3C//DTD SVG 1.1//EN" "http://www.w3.org/Graphics/SVG/1.1/DTD/svg11.dtd">
<svg version="1.1" id="Layer_1" xmlns="http://www.w3.org/2000/svg" xmlns:xlink="http://www.w3.org/1999/xlink" x="0px" y="0px"
	 width="100px" height="100px" viewBox="206 206 100 100" enable-background="new 206 206 100 100" xml:space="preserve">
<path fill="#3CBCA3" d="M255.932,306c6.341,0.039,11.544-5.099,11.583-11.449c0.012-1.878-0.441-3.676-1.232-5.252
	c-2.893,0.915-5.953,1.45-9.137,1.514c1.572,0.489,2.703,1.972,2.693,3.689c-0.014,2.113-1.742,3.822-3.856,3.81
	c-2.125-0.014-3.833-1.744-3.82-3.857c0.011-1.718,1.163-3.186,2.75-3.656c-3.182-0.104-6.235-0.678-9.116-1.629
	c-0.833,1.566-1.298,3.357-1.31,5.236C244.446,300.755,249.583,305.959,255.932,306z"/>
<path fill="#000116" d="M266.825,293.5h23.55c1.726,0,3.125-1.399,3.125-3.125v-12.5c0-1.726-1.399-3.125-3.125-3.125
	c-3.446,0-6.25-2.804-6.25-6.25v-21.875c0-7.531-2.938-14.606-8.272-19.922c-3.289-3.277-7.244-5.64-11.559-6.965
	c0.689-1.304,1.081-2.788,1.081-4.362c0-5.169-4.206-9.375-9.375-9.375s-9.375,4.206-9.375,9.375c0,1.583,0.396,3.076,1.093,4.385
	c-11.474,3.584-19.843,14.406-19.843,27.136V268.5c0,3.446-2.804,6.25-6.25,6.25c-1.726,0-3.125,1.399-3.125,3.125v12.5
	c0,1.726,1.399,3.125,3.125,3.125h23.55 M256,212.25c1.723,0,3.125,1.402,3.125,3.125S257.723,218.5,256,218.5
	s-3.125-1.402-3.125-3.125S254.277,212.25,256,212.25z M251.578,293.5h8.844 M287.25,287.25h-25h-12.5h-25v-6.646
	c5.386-1.392,9.375-6.29,9.375-12.104v-21.604c0-12.169,9.777-22.104,21.796-22.146c0.027,0,0.053,0,0.079,0
	c5.829,0,11.31,2.264,15.44,6.38c4.149,4.135,6.435,9.638,6.435,15.495V268.5c0,5.814,3.99,10.713,9.375,12.104V287.25z"/>
<path fill="#3CBCA3" d="M243.5,249.75c-1.726,0-3.125-1.399-3.125-3.125c0-8.616,7.01-15.625,15.625-15.625
	c1.726,0,3.125,1.399,3.125,3.125s-1.399,3.125-3.125,3.125c-5.169,0-9.375,4.206-9.375,9.375
	C246.625,248.351,245.226,249.75,243.5,249.75z"/>
<path fill="#3CBCA3" d="M255.996,206c-5.161,0-9.371,4.21-9.371,9.38c0,1.53,0.38,2.99,1.03,4.27c2.35-0.76,4.84-1.21,7.431-1.28
	c-1.28-0.39-2.211-1.59-2.211-2.99c0-1.72,1.4-3.12,3.121-3.12c1.729,0,3.129,1.4,3.129,3.12c0,1.4-0.93,2.6-2.22,2.99
	c2.591,0.07,5.08,0.52,7.431,1.28c0.67-1.28,1.039-2.74,1.039-4.27C265.375,210.21,261.166,206,255.996,206z"/>
</svg>
