<?xml version="1.0" encoding="utf-8"?>
<!-- Generator: Adobe Illustrator 17.0.0, SVG Export Plug-In . SVG Version: 6.00 Build 0)  -->
<!DOCTYPE svg PUBLIC "-//W3C//DTD SVG 1.1//EN" "http://www.w3.org/Graphics/SVG/1.1/DTD/svg11.dtd">
<svg version="1.1" id="Layer_1" xmlns="http://www.w3.org/2000/svg" xmlns:xlink="http://www.w3.org/1999/xlink" x="0px" y="0px"
	 width="100px" height="100px" viewBox="0 0 100 100" enable-background="new 0 0 100 100" xml:space="preserve">
<g>
	<path fill="#1C1E3A" d="M93.542,100c-29.028,0-58.056,0-87.083,0C5.735,99.751,5.245,99.269,5,98.542c0-2.431,0-4.861,0-7.292
		c0.402-0.596,0.829-1.148,1.624-1.244c0.565-0.069,1.363,0.283,1.641-0.2c0.27-0.47,0.066-1.213,0.069-1.836
		c0.001-0.138-0.021-0.281,0.003-0.415c0.128-0.721-0.142-1.005-0.883-0.896C6.358,86.82,5.544,86.373,5,85.417c0-2.5,0-5,0-7.5
		c0.546-0.958,1.354-1.34,2.464-1.265c1.071,0.072,2.156-0.049,3.226,0.035c0.854,0.068,0.995-0.249,0.993-1.027
		c-0.025-11.074-0.017-22.149-0.017-33.224c0-1.83,0.596-2.436,2.396-2.436c4.964-0.001,9.929-0.024,14.893,0.023
		c0.865,0.008,1.069-0.199,1.066-1.065C29.988,27.883,29.999,16.808,30,5.734c0-1.807,0.602-2.399,2.434-2.4
		c3.333-0.002,6.666-0.022,9.998,0.017c0.706,0.008,1.024-0.127,0.907-0.888C43.171,1.361,43.625,0.546,44.583,0
		c3.611,0,7.222,0,10.833,0c0.963,0.545,1.414,1.363,1.244,2.465c-0.118,0.766,0.208,0.893,0.91,0.885
		c3.298-0.039,6.596-0.018,9.894-0.017C69.441,3.333,70,3.887,70,5.838c0,11.074,0.009,22.149-0.02,33.223
		c-0.002,0.777,0.177,0.966,0.957,0.959c4.964-0.04,9.929-0.021,14.893-0.019c1.952,0.001,2.502,0.561,2.502,2.537
		c0,11.074,0.007,22.149-0.016,33.223c-0.001,0.701,0.122,0.974,0.886,0.924c1.106-0.073,2.224,0.038,3.33-0.034
		c1.111-0.072,1.922,0.304,2.467,1.266c0,2.5,0,5,0,7.5c-0.397,0.605-0.833,1.146-1.627,1.245c-0.564,0.071-1.36-0.286-1.638,0.201
		c-0.269,0.472-0.065,1.213-0.069,1.836c-0.001,0.173,0.023,0.35-0.005,0.519c-0.108,0.638,0.132,0.878,0.782,0.789
		c1.116-0.152,2.001,0.219,2.557,1.243c0,2.431,0,4.861,0,7.292C94.756,99.27,94.262,99.748,93.542,100z M66.666,23.419
		c0-5.276-0.021-10.552,0.022-15.827c0.007-0.805-0.221-0.958-0.974-0.945c-2.741,0.048-5.484,0.045-8.225,0.001
		c-0.705-0.011-0.844,0.212-0.838,0.867c0.032,3.471,0.015,6.942,0.016,10.412c0,0.855-0.261,1.53-1.123,1.904
		c-0.838,0.363-1.386-0.069-1.917-0.592c-0.964-0.95-1.955-1.878-2.858-2.884c-0.555-0.619-0.901-0.727-1.51-0.037
		c-0.962,1.091-2.023,2.099-3.082,3.1c-0.846,0.8-1.868,0.699-2.488-0.177c-0.314-0.444-0.364-0.946-0.362-1.475
		c0.01-3.436-0.011-6.872,0.021-10.308c0.006-0.629-0.131-0.818-0.791-0.808c-2.776,0.042-5.554,0.044-8.33-0.001
		c-0.718-0.012-0.915,0.153-0.913,0.896c0.027,10.517,0.025,21.033,0.001,31.55c-0.002,0.702,0.129,0.925,0.885,0.923
		c10.517-0.028,21.033-0.03,31.55,0.005c0.825,0.003,0.937-0.256,0.933-0.986C66.653,33.831,66.668,28.625,66.666,23.419z
		 M48.334,60.084c0-5.276-0.021-10.552,0.022-15.827c0.007-0.81-0.229-0.955-0.977-0.942c-2.707,0.047-5.415,0.056-8.121-0.004
		c-0.811-0.018-0.948,0.228-0.942,0.976c0.036,4.547,0.018,9.094,0.018,13.641c0,0.856-0.257,1.535-1.123,1.905
		c-0.837,0.358-1.385-0.072-1.916-0.597c-0.987-0.976-1.997-1.933-2.936-2.954c-0.499-0.542-0.8-0.663-1.359-0.037
		c-0.993,1.111-2.073,2.148-3.156,3.173c-0.844,0.799-1.875,0.697-2.488-0.178c-0.311-0.444-0.362-0.947-0.361-1.477
		c0.009-4.547-0.008-9.094,0.02-13.641c0.004-0.627-0.127-0.818-0.788-0.808c-2.741,0.042-5.484,0.048-8.225-0.001
		c-0.792-0.014-1.025,0.166-1.022,1c0.032,10.447,0.029,20.895,0.005,31.342c-0.002,0.772,0.137,1.035,0.988,1.033
		c10.482-0.034,20.964-0.035,31.446,0c0.827,0.003,0.935-0.257,0.931-0.986C48.319,70.497,48.333,65.291,48.334,60.084z
		 M68.337,76.666c5.276,0,10.552-0.013,15.827,0.016c0.678,0.004,0.852-0.17,0.851-0.85c-0.023-10.552-0.022-21.103-0.001-31.655
		c0.001-0.661-0.142-0.874-0.84-0.862c-2.741,0.044-5.484,0.048-8.225-0.001c-0.758-0.014-0.979,0.145-0.971,0.947
		c0.046,4.546,0.022,9.094,0.023,13.641c0,0.852-0.244,1.54-1.099,1.922c-0.881,0.394-1.444-0.092-1.997-0.64
		c-1.035-1.026-2.081-2.043-3.083-3.102c-0.381-0.403-0.605-0.392-0.982,0.004c-1.053,1.105-2.138,2.182-3.234,3.245
		c-0.833,0.808-1.664,0.856-2.369,0.169c-0.477-0.465-0.579-1.06-0.577-1.709c0.012-4.512-0.008-9.024,0.022-13.536
		c0.005-0.677-0.086-0.956-0.869-0.941c-2.776,0.054-5.554,0.049-8.329,0.002c-0.715-0.012-0.832,0.225-0.831,0.871
		c0.019,10.517,0.023,21.034-0.008,31.551c-0.002,0.795,0.208,0.954,0.969,0.949C57.855,76.649,63.096,76.666,68.337,76.666z
		 M49.894,83.334c13.193,0,26.387,0,39.58,0c2.191,0,2.139-0.004,2.217-2.185c0.034-0.948-0.229-1.172-1.171-1.171
		C63.89,80.006,37.26,80,10.631,80c-2.301,0-2.255,0-2.32,2.288c-0.025,0.867,0.199,1.069,1.066,1.067
		C22.882,83.325,36.388,83.334,49.894,83.334z M49.895,96.666c13.194,0,26.388,0,39.581,0c2.19,0,2.137-0.002,2.214-2.186
		c0.034-0.95-0.232-1.169-1.172-1.168c-26.631,0.028-53.261,0.022-79.892,0.022c-2.296,0-2.251,0.001-2.317,2.289
		c-0.025,0.868,0.2,1.068,1.066,1.066C22.883,96.658,36.389,96.667,49.895,96.666z M31.561,90c3.68,0,7.36,0,11.04,0
		c2.409,0,2.373-0.001,2.42-2.392c0.015-0.776-0.175-0.965-0.958-0.962c-7.741,0.034-15.483,0.021-23.225,0.021
		c-2.534,0-2.507,0-2.522,2.497c-0.004,0.678,0.172,0.858,0.852,0.852C23.299,89.984,27.43,90,31.561,90z M68.424,86.666
		c-3.68,0-7.36,0.001-11.039,0c-2.401-0.001-2.359-0.002-2.409,2.41c-0.017,0.812,0.233,0.944,0.979,0.941
		c7.741-0.029,15.483-0.017,23.224-0.018c2.519,0,2.487-0.002,2.507-2.514c0.006-0.71-0.218-0.838-0.869-0.833
		C76.686,86.681,72.555,86.667,68.424,86.666z M53.334,14.462c0-3.738-0.014-7.164,0.013-10.59c0.005-0.621-0.343-0.542-0.725-0.541
		c-1.734,0.004-3.47,0.042-5.202-0.017c-0.699-0.024-0.78,0.243-0.765,0.831c0.037,1.525,0.012,3.052,0.012,4.578
		c0,1.818,0,3.637,0,5.699c0.783-0.795,1.373-1.417,1.987-2.014c0.994-0.965,1.686-0.976,2.667-0.027
		C51.94,12.982,52.523,13.621,53.334,14.462z M71.44,54.272c0.076-0.043,0.151-0.086,0.227-0.13c0-3.396-0.01-6.793,0.011-10.189
		c0.003-0.507-0.149-0.64-0.642-0.632c-1.768,0.028-3.538,0.036-5.306-0.002c-0.589-0.013-0.749,0.156-0.744,0.744
		c0.029,3.087,0.01,6.174,0.018,9.26c0.001,0.287-0.099,0.603,0.184,0.989c0.68-0.718,1.292-1.423,1.967-2.06
		c0.814-0.77,1.545-0.769,2.362,0.003C70.191,52.892,70.802,53.597,71.44,54.272z M28.332,54.406
		c0.751-0.757,1.323-1.346,1.908-1.92c1.105-1.084,1.771-1.08,2.887,0.034c0.569,0.568,1.111,1.163,1.873,1.964
		c0-3.787-0.01-7.207,0.011-10.626c0.003-0.519-0.246-0.533-0.633-0.53c-1.802,0.011-3.604,0.035-5.404-0.012
		c-0.616-0.016-0.651,0.253-0.649,0.731C28.338,47.406,28.332,50.766,28.332,54.406z M13.245,90c1.755,0,1.755,0,1.755-1.786
		c0-1.546,0-1.546-1.578-1.546c-1.755,0-1.755,0-1.755,1.786C11.667,90,11.667,90,13.245,90z M50.042,86.667
		c-1.708,0-1.708,0-1.708,1.727c0,1.606,0,1.606,1.623,1.605c1.708-0.001,1.708-0.001,1.709-1.729
		C51.668,86.668,51.668,86.668,50.042,86.667z M86.749,86.667c-1.752-0.002-1.752-0.002-1.749,1.688
		c0.002,1.648,0.002,1.648,1.688,1.646c1.645-0.001,1.645-0.001,1.646-1.689C88.335,86.669,88.335,86.669,86.749,86.667z"/>
	<path fill="#1C1E3A" d="M49.963,26.667c-0.868,0-1.736-0.026-2.602,0.01c-0.518,0.022-0.698-0.101-0.711-0.673
		c-0.058-2.668-0.079-2.668,2.553-2.67c1.145-0.001,2.291,0.023,3.435-0.011c0.517-0.015,0.698,0.103,0.712,0.673
		c0.065,2.673,0.086,2.673-2.554,2.669C50.518,26.666,50.24,26.666,49.963,26.667z"/>
	<path fill="#1C1E3A" d="M31.636,66.667c-0.868,0-1.736-0.024-2.602,0.009c-0.506,0.02-0.705-0.082-0.718-0.665
		c-0.063-2.677-0.086-2.676,2.549-2.678c1.145-0.001,2.291,0.022,3.435-0.009c0.505-0.013,0.705,0.08,0.719,0.664
		c0.065,2.68,0.088,2.679-2.55,2.678C32.191,66.667,31.913,66.667,31.636,66.667z"/>
	<path fill="#1C1E3A" d="M68.423,66.667c-0.902,0-1.807-0.039-2.706,0.014c-0.614,0.036-0.725-0.192-0.73-0.758
		c-0.024-2.586-0.042-2.587,2.527-2.588c1.145-0.001,2.292,0.035,3.435-0.015c0.612-0.027,0.725,0.194,0.732,0.759
		c0.03,2.591,0.049,2.591-2.529,2.588C68.909,66.666,68.666,66.666,68.423,66.667z"/>
</g>
</svg>
