<?xml version="1.0" encoding="utf-8"?>
<!-- Generator: Adobe Illustrator 17.0.0, SVG Export Plug-In . SVG Version: 6.00 Build 0)  -->
<!DOCTYPE svg PUBLIC "-//W3C//DTD SVG 1.1//EN" "http://www.w3.org/Graphics/SVG/1.1/DTD/svg11.dtd">
<svg version="1.1" id="Layer_1" xmlns="http://www.w3.org/2000/svg" xmlns:xlink="http://www.w3.org/1999/xlink" x="0px" y="0px"
	 width="42px" height="42px" viewBox="0 0 42 42" enable-background="new 0 0 42 42" xml:space="preserve">
<circle fill="#000116" cx="27.728" cy="28.383" r="1.641"/>
<path fill="#1c1e3a" d="M19.524,38.719H6.563c-1.81,0-3.281-1.473-3.281-3.281V21.985c0-1.81,1.472-3.281,3.281-3.281h23.625
	c1.809,0,3.281,1.472,3.281,3.281v3.281c0,0.906,0.734,1.641,1.641,1.641s1.641-0.734,1.641-1.641v-3.281
	c0-3.619-2.944-6.563-6.563-6.563h-1.973V9.636C28.215,4.323,23.8,0,18.372,0c-5.429,0-9.844,4.323-9.844,9.636v5.786H6.562
	c-3.619,0-6.563,2.944-6.563,6.563v13.453c0,3.619,2.943,6.563,6.563,6.563h12.961c0.906,0,1.641-0.734,1.641-1.641
	S20.431,38.719,19.524,38.719z M11.811,9.636c0-3.504,2.943-6.354,6.563-6.354c3.618,0,6.563,2.851,6.563,6.354v5.786H11.811V9.636z
	"/>
<path fill="#000116" d="M41.315,26.721c-0.737-0.527-1.762-0.357-2.289,0.379l-8.087,11.295c-0.221,0.257-0.498,0.313-0.646,0.322
	c-0.152,0.01-0.445-0.01-0.703-0.252l-5.227-5.1c-0.648-0.633-1.687-0.62-2.319,0.028s-0.62,1.688,0.028,2.32l5.235,5.108
	c0.005,0.006,0.01,0.01,0.015,0.015c0.784,0.747,1.832,1.163,2.91,1.163c0.093,0,0.186-0.004,0.278-0.01
	c1.174-0.078,2.271-0.648,3.008-1.566c0.019-0.023,0.037-0.048,0.055-0.072l8.12-11.342C42.222,28.273,42.052,27.248,41.315,26.721z
	"/>
<circle fill="#000116" cx="21.493" cy="28.383" r="1.641"/>
<circle fill="#000116" cx="9.189" cy="28.383" r="1.641"/>
<circle fill="#000116" cx="15.341" cy="28.383" r="1.641"/>
</svg>
