<?xml version="1.0" encoding="utf-8"?>
<!-- Generator: Adobe Illustrator 17.0.0, SVG Export Plug-In . SVG Version: 6.00 Build 0)  -->
<!DOCTYPE svg PUBLIC "-//W3C//DTD SVG 1.1//EN" "http://www.w3.org/Graphics/SVG/1.1/DTD/svg11.dtd">
<svg version="1.1" id="Capa_1" xmlns="http://www.w3.org/2000/svg" xmlns:xlink="http://www.w3.org/1999/xlink" x="0px" y="0px"
	 width="42px" height="42px" viewBox="0 0 42 42" enable-background="new 0 0 42 42" xml:space="preserve">
<path fill="#000116" d="M20.933,23.448c6.207,0,11.242-5.035,11.242-11.241C32.175,6,27.14,1,20.933,1
	C14.727,1,9.692,6.035,9.692,12.207S14.727,23.448,20.933,23.448z M20.933,3.931c4.552,0,8.276,3.724,8.276,8.276
	s-3.725,8.276-8.276,8.276s-8.275-3.724-8.275-8.276S16.381,3.931,20.933,3.931z"/>
<path fill="#1c1e3a" d="M1.484,41h39.035c0.827,0,1.482-0.655,1.482-1.482c0-7.759-6.311-14.104-14.104-14.104H14.103
	c-7.759,0-14.104,6.311-14.104,14.104C0.002,40.345,0.657,41,1.484,41z M14.106,28.379h13.793c5.655,0,10.311,4.207,11.034,9.656
	H3.072C3.795,32.621,8.45,28.379,14.106,28.379z"/>
</svg>
