<?xml version="1.0" encoding="utf-8"?>
<!-- Generator: Adobe Illustrator 17.0.0, SVG Export Plug-In . SVG Version: 6.00 Build 0)  -->
<!DOCTYPE svg PUBLIC "-//W3C//DTD SVG 1.1//EN" "http://www.w3.org/Graphics/SVG/1.1/DTD/svg11.dtd">
<svg version="1.1" id="Layer_1" xmlns="http://www.w3.org/2000/svg" xmlns:xlink="http://www.w3.org/1999/xlink" x="0px" y="0px"
	 width="100px" height="100px" viewBox="256 346 100 100" enable-background="new 256 346 100 100" xml:space="preserve">
<g id="Order_confirmation">
	<path fill="#1C1E3A" d="M299.256,437.724l0.44-3.962h-30.195c-1.19,0-2.155-0.965-2.155-2.155v-72.623
		c0-1.19,0.965-2.155,2.155-2.155h45.509c1.19,0,2.155,0.965,2.155,2.155v34.156c0.983-0.828,2.092-1.493,3.285-1.97v-38.122
		c0-3.893-3.156-7.048-7.048-7.048l0,0h-42.293c-3.893,0-7.048,3.156-7.048,7.048v84.611c0,3.893,3.156,7.048,7.048,7.048l0,0
		h30.068C299.668,442.711,298.981,440.212,299.256,437.724z M297.187,440.349h-9.863v-2.586h9.863V440.349z"/>
	<path fill="#1C1E3A" d="M283.867,375.945c-0.229,2.836-2.713,4.949-5.549,4.72s-4.949-2.713-4.72-5.549
		c0.216-2.676,2.45-4.737,5.135-4.737v-2.371c-4.154,0-7.521,3.367-7.522,7.521s3.367,7.521,7.521,7.522
		c3.993,0,7.29-3.12,7.51-7.106H283.867z"/>
	<path fill="#1C1E3A" d="M276.651,373.06l-1.909,1.745l2.842,3.11c0.243,0.266,0.586,0.418,0.946,0.421h0.008
		c0.357,0,0.699-0.148,0.943-0.408l6.034-6.432l-1.886-1.77l-5.078,5.413L276.651,373.06z"/>
	<path fill="#1C1E3A" d="M283.867,396.439c-0.229,2.836-2.713,4.949-5.549,4.72s-4.949-2.713-4.72-5.549
		c0.216-2.676,2.45-4.737,5.135-4.737v-2.371c-4.154,0-7.521,3.367-7.522,7.521c0,4.154,3.367,7.521,7.521,7.522
		c3.993,0,7.29-3.12,7.51-7.106H283.867z"/>
	<path fill="#1C1E3A" d="M276.651,393.554l-1.909,1.745l2.842,3.11c0.243,0.266,0.586,0.418,0.946,0.421h0.008
		c0.357,0,0.699-0.148,0.943-0.408l6.034-6.432l-1.886-1.77l-5.078,5.413L276.651,393.554z"/>
	<path fill="#1C1E3A" d="M271.211,416.52c0.001,4.154,3.37,7.521,7.524,7.519c3.992-0.001,7.287-3.12,7.508-7.106h-2.375
		c-0.229,2.836-2.713,4.949-5.548,4.72s-4.949-2.713-4.72-5.548c0.216-2.676,2.45-4.737,5.135-4.737v-2.371
		C274.58,409.002,271.215,412.367,271.211,416.52z"/>
	<path fill="#1C1E3A" d="M276.651,414.049l-1.909,1.745l2.842,3.11c0.243,0.266,0.586,0.418,0.946,0.421h0.008
		c0.357,0,0.699-0.148,0.943-0.408l6.034-6.431l-1.886-1.77l-5.078,5.413L276.651,414.049z"/>
	<rect x="291.615" y="371.64" fill="#1C1E3A" width="15.666" height="2.586"/>
	<rect x="291.615" y="376.833" fill="#1C1E3A" width="10.906" height="2.586"/>
	<rect x="291.615" y="391.707" fill="#1C1E3A" width="10.906" height="2.586"/>
	<rect x="291.615" y="396.9" fill="#1C1E3A" width="15.59" height="2.586"/>
	<path fill="#1C1E3A" d="M347.894,437.903l-3.041-27.343c-0.247-2.239-2.14-3.934-4.393-3.932h-6.042v-4.171
		c-0.006-5.208-4.178-9.453-9.385-9.55c-5.344-0.092-9.717,4.375-9.717,9.719v4.001h-6.043c-2.253-0.002-4.146,1.692-4.393,3.932
		l-3.053,27.449c-0.439,3.949,2.406,7.507,6.355,7.947c0.264,0.029,0.53,0.044,0.796,0.044h31.671c4.027,0,7.291-3.264,7.291-7.291
		C347.939,438.44,347.924,438.171,347.894,437.903L347.894,437.903z M317.901,402.458c0.004-3.798,3.047-6.894,6.845-6.964
		c3.896-0.066,7.085,3.206,7.085,7.103v4.032h-13.93V402.458z M344.154,441.846c-0.893,0.997-2.168,1.566-3.506,1.567h-31.671
		c-2.545,0-4.609-2.064-4.609-4.609c0-0.17,0.009-0.34,0.028-0.509l3.053-27.449c0.103-0.929,0.888-1.632,1.823-1.631h6.042v5.13
		h2.586v-5.13h13.93v5.13h2.586v-5.13h6.042c0.935-0.001,1.72,0.702,1.823,1.631l3.041,27.343
		C345.471,439.519,345.046,440.849,344.154,441.846z"/>
</g>
</svg>
