<?xml version="1.0" encoding="utf-8"?>
<!-- Generator: Adobe Illustrator 17.0.0, SVG Export Plug-In . SVG Version: 6.00 Build 0)  -->
<!DOCTYPE svg PUBLIC "-//W3C//DTD SVG 1.1//EN" "http://www.w3.org/Graphics/SVG/1.1/DTD/svg11.dtd">
<svg version="1.1" id="Layer_1" xmlns="http://www.w3.org/2000/svg" xmlns:xlink="http://www.w3.org/1999/xlink" x="0px" y="0px"
	 width="100px" height="100px" viewBox="0 0 100 100" enable-background="new 0 0 100 100" xml:space="preserve">
<path fill="#1C1E3A" d="M5.494,55.23c0-10.082-0.102-20.166,0.035-30.246c0.095-7.014,3.157-9.986,10.074-10.289
	c1.038-0.045,2.088-0.128,3.115-0.022c1.529,0.157,2.025-0.462,1.962-1.941c-0.088-2.075-0.088-4.16-0.001-6.235
	c0.147-3.503,2.017-5.512,5.018-5.536c2.999-0.024,4.976,2.004,5.14,5.43c0.099,2.074,0.105,4.161-0.004,6.234
	c-0.083,1.573,0.358,2.159,2.057,2.148c11.225-0.072,22.451-0.062,33.676-0.007c1.471,0.007,2.025-0.38,1.951-1.905
	c-0.113-2.281-0.103-4.575-0.008-6.858c0.129-3.117,2.213-5.092,5.147-5.034c2.823,0.056,4.696,1.963,4.815,4.995
	c0.109,2.789-0.895,6.405,0.491,8.146c1.472,1.848,5.245,0.386,8.011,0.584c6.246,0.447,9.246,3.367,9.467,9.961
	c0.193,5.815,0.088,11.64,0.092,17.46c0.006,13.928,0.029,27.856-0.016,41.784c-0.037,11.176-5.393,16.844-16.521,16.938
	c-19.33,0.165-38.663,0.166-57.993,0c-11.152-0.095-16.456-5.745-16.543-16.92c-0.002-0.312-0.004-0.624-0.004-0.935
	c0-9.252,0-18.502,0-27.752C5.467,55.23,5.48,55.23,5.494,55.23z M51.148,43.332c-11.738,0-23.479,0.039-35.217-0.041
	c-1.836-0.013-2.474,0.344-2.458,2.35c0.104,12.985,0.03,25.972,0.078,38.958c0.021,5.791,2.219,8.143,8.139,8.172
	c19.53,0.101,39.061,0.102,58.589,0c6.013-0.031,8.141-2.408,8.158-8.482c0.037-12.778-0.041-25.557,0.078-38.334
	c0.021-2.248-0.66-2.693-2.773-2.673C74.213,43.388,62.682,43.332,51.148,43.332z M50.936,34.806c9.875,0,19.75,0.039,29.625-0.026
	c2.56-0.017,6.056,1.166,7.424-0.495c1.291-1.566,0.445-4.934,0.443-7.51c-0.002-4.016-0.035-4.027-4.176-4.024
	c-20.479,0.014-40.955,0.008-61.433,0.084c-2.958,0.011-6.761-1.416-8.659,0.675c-1.835,2.021-0.374,5.784-0.662,8.76
	c-0.194,2.003,0.43,2.607,2.512,2.588C27.65,34.751,39.293,34.806,50.936,34.806z"/>
<path fill="#1C1E3A" d="M67.268,54.386c0.096,1.163-0.498,2.097-1.189,3.046c-5.246,7.205-10.439,14.45-15.695,21.65
	c-2.1,2.877-3.917,3.158-6.838,1.107c-2.969-2.084-5.915-4.205-8.807-6.394c-2.244-1.698-2.696-4.008-1.317-5.926
	c1.382-1.921,3.665-2.147,6.033-0.595c0.087,0.057,0.165,0.125,0.25,0.185c1.951,1.358,4.125,4.033,5.799,3.75
	c2.217-0.375,3.24-3.694,4.775-5.744c3.295-4.396,6.47-8.88,9.699-13.325c1.172-1.613,2.795-2.231,4.644-1.605
	C66.314,51.109,67.342,52.396,67.268,54.386z"/>
</svg>
